PathFileType	4	(X/Y/Z)	Walk1.trc
DataRate	CameraRate	NumFrames	NumMarkers	Units	OrigDataRate	OrigDataStartFrame	OrigNumFrames
200.000000	200.000000	7	59	mm	200.000000	456	584
Frame#	Times		LFHD		RFHD		LBHD		RBHD		C7		T10		CLAV		STRN		RBack		LASI		RACR1		RUA1		RElbow		RFA1		RWRR		RWRU		RCAR		LACR1		LUA1		LElbow		LFA1		LWRU		LCAR		RTH1		RTH3		RTB1		RTB3		RTB4		LTH3		LTH2		LTH4		LLFC		LTB2		LTB4		LToe		RTH2		LMMAL		RTH4		LTH1		LTB1		RTB2		LCAL		LMT1		LTB3		LMT5		RElbowM		LWRR		LLMAL		RLFC		RPSI		LPSI		LElbowM		RASI		RMT1		RToe		RCAL		RMMAL		RLMAL		RMT5
			X1	Y1	Z1	X2	Y2	Z2	X3	Y3	Z3	X4	Y4	Z4	X5	Y5	Z5	X6	Y6	Z6	X7	Y7	Z7	X8	Y8	Z8	X9	Y9	Z9	X10	Y10	Z10	X11	Y11	Z11	X12	Y12	Z12	X13	Y13	Z13	X14	Y14	Z14	X15	Y15	Z15	X16	Y16	Z16	X17	Y17	Z17	X18	Y18	Z18	X19	Y19	Z19	X20	Y20	Z20	X21	Y21	Z21	X22	Y22	Z22	X23	Y23	Z23	X24	Y24	Z24	X25	Y25	Z25	X26	Y26	Z26	X27	Y27	Z27	X28	Y28	Z28	X29	Y29	Z29	X30	Y30	Z30	X31	Y31	Z31	X32	Y32	Z32	X33	Y33	Z33	X34	Y34	Z34	X35	Y35	Z35	X36	Y36	Z36	X37	Y37	Z37	X38	Y38	Z38	X39	Y39	Z39	X40	Y40	Z40	X41	Y41	Z41	X42	Y42	Z42	X43	Y43	Z43	X44	Y44	Z44	X45	Y45	Z45	X46	Y46	Z46	X47	Y47	Z47	X48	Y48	Z48	X49	Y49	Z49	X50	Y50	Z50	X51	Y51	Z51	X52	Y52	Z52	X53	Y53	Z53	X54	Y54	Z54	X55	Y55	Z55	X56	Y56	Z56	X57	Y57	Z57	X58	Y58	Z58	X59	Y59	Z59

456	2.28	258.69	1434.6	1.9824	250.44	1421	97.453	128.93	1362.9	-29.292	118.56	1352.3	103.12	84.897	1272.9	40.626	-6.337	1075.9	50.042	223.7	1185.7	28.533	273.12	1078.3	28.013	42.079	1148.6	158.7	177.17	820.07	-137.28	165.82	1210.1	213.04	181.96	1067.7	290.19	174.41	943.46	326.37	250.44	836.5	326.09	283.31	744.57	284.87	251.27	736.05	349.18	307.73	691.61	336.19	130.87	1220.9	-151.7	131.23	1060.3	-227.66	95.141	943.34	-248.83	174.14	858.96	-268.28	193.57	749.91	-284.58	245.1	714.73	-277.75	155.99	640.5	235.13	165.27	474.84	182.68	194.98	286.33	98.696	163.3	119.41	73.805	175.76	202.09	86.544	184.94	494.52	-157.72	212.45	598.06	-150.88	163.07	577.5	-177.25	222.11	399.61	-131.26	103.73	256.69	-111.27	125.23	242.61	-54.765	84.189	38.593	-51.406	214.73	566.46	194.16	10.67	158.75	4.7714	158.24	556.54	212.5	141.48	659.92	-189.39	190.93	300.69	-65.712	146.98	200.52	140.69	-59.661	180.42	-20.325	52.434	58.883	-18.513	67.508	183.6	-46.758	4.3072	76.944	-91.171	121.47	905.37	258.54	229	762.64	-234.28	-25.101	163.88	-69.568	154.22	389.29	157.39	-48.86	848.99	98.593	-64.978	845.75	-5.5506	69.358	917.91	-179.97	218.35	829.07	182.59	217.1	29.703	30.672	275.48	32.251	59.466	52.609	33.698	69.263	118.46	69.43	27.526	113.42	59.287	110.82	199.45	22.685	126.57
457	2.285	263.99	1435	2.1331	255.82	1421.4	97.616	134.27	1363.2	-29.054	123.99	1352.7	103.36	90.357	1273.3	40.929	-0.8438	1076.2	50.541	229.12	1186.1	28.633	278.45	1078.7	27.493	47.591	1149	159.07	182.46	820.99	-137.25	171.32	1210.5	213.26	187.8	1068.1	290.38	180.78	943.88	326.58	257.26	837.24	325.9	290.44	745.53	284.55	258.61	736.78	348.9	315.3	692.72	335.81	135.81	1221.2	-151.45	135.37	1060.9	-227.66	99.178	943.85	-248.56	177.42	858.82	-268.28	195.83	749.64	-284.77	247	713.88	-277.95	160.14	640.46	235.32	167.71	474.76	182.71	196.17	286.01	98.772	163.67	119.24	73.795	176.59	201.87	86.572	192.44	495.72	-157.16	219.12	599.51	-150.71	169.78	578.45	-176.85	230.71	401.27	-130.56	115.15	256.14	-110.51	137	242.5	-54.054	102.04	38.59	-51.12	218.09	565.91	194.27	24.426	155.98	5.474	161.49	556.47	212.59	147.44	660.64	-189.17	201.45	301.96	-65.006	147.71	200.46	140.67	-46.663	175.57	-19.48	69.546	58.066	-18.228	80.637	182.2	-46.026	20.647	74.444	-90.695	127.63	905.64	259.04	231.32	761.89	-234.39	-11.527	160.29	-68.884	155.94	389.23	157.43	-43.496	849.33	98.931	-59.673	846.34	-5.0918	73.274	918.62	-179.74	223.17	829.24	183.28	217.12	29.676	30.649	275.63	32.125	59.473	52.643	33.868	69.271	118.55	69.485	27.514	113.55	59.305	110.81	199.44	22.695	126.55
458	2.29	269.28	1435.4	2.264	261.18	1421.8	97.758	139.61	1363.5	-28.84	129.42	1352.9	103.58	95.824	1273.6	41.208	4.6464	1076.6	51.03	234.54	1186.4	28.719	283.79	1079.1	26.946	53.107	1149.4	159.43	187.72	821.88	-137.21	176.82	1210.9	213.46	193.57	1068.5	290.57	187.12	944.28	326.78	264.06	837.97	325.72	297.55	746.49	284.22	265.93	737.51	348.6	322.86	693.85	335.42	140.8	1221.5	-151.21	139.54	1061.3	-227.67	103.23	944.34	-248.34	180.7	858.68	-268.35	198.09	749.38	-285.07	248.89	713.03	-278.26	164.34	640.4	235.47	170.23	474.69	182.72	197.33	285.7	98.844	164.02	119.09	73.788	177.39	201.67	86.597	199.87	496.88	-156.6	225.75	600.91	-150.54	176.45	579.35	-176.46	239.18	402.9	-129.83	126.63	255.47	-109.76	148.84	242.3	-53.342	120.1	38.593	-50.917	221.5	565.37	194.31	38.425	153.03	6.1523	164.82	556.41	212.66	153.38	661.33	-188.97	211.93	303.19	-64.285	148.4	200.41	140.66	-33.383	170.45	-18.637	86.893	57.182	-18.01	93.936	180.68	-45.304	37.236	71.834	-90.272	133.8	905.89	259.5	233.65	761.14	-234.61	2.2773	156.48	-68.21	157.62	389.18	157.47	-38.128	849.68	99.278	-54.377	846.9	-4.6328	77.196	919.3	-179.57	228.03	829.38	183.95	217.13	29.649	30.632	275.77	32.007	59.486	52.679	34.045	69.281	118.63	69.543	27.508	113.68	59.327	110.8	199.43	22.701	126.53
459	2.295	274.57	1435.8	2.3769	266.53	1422.2	97.881	144.96	1363.8	-28.65	134.84	1353.2	103.78	101.3	1273.9	41.46	10.133	1076.9	51.509	239.96	1186.7	28.792	289.13	1079.4	26.38	58.626	1149.7	159.78	192.98	822.76	-137.15	182.31	1211.3	213.64	199.28	1068.9	290.77	193.42	944.67	326.98	270.83	838.7	325.54	304.66	747.46	283.88	273.23	738.23	348.28	330.41	694.97	335.01	145.84	1221.8	-150.99	143.74	1061.8	-227.69	107.29	944.81	-248.16	183.98	858.53	-268.49	200.35	749.12	-285.45	250.77	712.19	-278.71	168.59	640.34	235.58	172.84	474.63	182.71	198.46	285.4	98.908	164.35	118.95	73.785	178.17	201.48	86.617	207.24	498	-156.04	232.35	602.25	-150.37	183.08	580.21	-176.08	247.52	404.49	-129.06	138.15	254.71	-109	160.75	242.02	-52.637	138.34	38.619	-50.824	224.97	564.83	194.28	52.671	149.92	6.7972	168.23	556.36	212.7	159.32	661.99	-188.81	222.34	304.39	-63.552	149.08	200.36	140.65	-19.812	165.08	-17.8	104.46	56.248	-17.88	107.4	179.06	-44.601	54.057	69.146	-89.917	139.97	906.13	259.92	236	760.4	-234.94	16.313	152.47	-67.55	159.27	389.14	157.51	-32.758	850.02	99.626	-49.087	847.43	-4.1836	81.133	919.94	-179.44	232.92	829.48	184.59	217.15	29.622	30.622	275.91	31.895	59.506	52.72	34.231	69.291	118.71	69.605	27.508	113.81	59.353	110.8	199.41	22.705	126.52
460	2.3	279.85	1436.1	2.4733	271.86	1422.5	97.987	150.3	1364	-28.485	140.26	1353.4	103.94	106.77	1274.2	41.684	15.614	1077.1	51.975	245.39	1187	28.852	294.47	1079.7	25.804	64.147	1150.1	160.12	198.24	823.6	-137.07	187.81	1211.7	213.8	204.93	1069.2	290.98	199.68	945.04	327.17	277.58	839.42	325.36	311.75	748.42	283.52	280.52	738.94	347.95	337.94	696.09	334.59	150.94	1222	-150.79	147.98	1062.2	-227.72	111.36	945.25	-248.02	187.27	858.38	-268.71	202.6	748.87	-285.93	252.65	711.36	-279.27	172.9	640.25	235.65	175.52	474.56	182.68	199.56	285.12	98.962	164.67	118.81	73.782	178.93	201.29	86.631	214.55	499.08	-155.47	238.9	603.53	-150.2	189.69	581.03	-175.72	255.72	406.02	-128.26	149.71	253.86	-108.26	172.71	241.67	-51.946	156.73	38.685	-50.861	228.49	564.29	194.2	67.168	146.66	7.3991	171.71	556.3	212.71	165.24	662.61	-188.68	232.69	305.55	-62.814	149.75	200.33	140.63	-5.9379	159.51	-16.972	122.24	55.282	-17.853	121.03	177.34	-43.924	71.092	66.413	-89.643	146.14	906.35	260.3	238.37	759.66	-235.39	30.584	148.3	-66.909	160.9	389.1	157.55	-27.392	850.36	99.964	-43.798	847.94	-3.7538	85.092	920.53	-179.35	237.84	829.56	185.18	217.16	29.596	30.617	276.04	31.79	59.531	52.765	34.429	69.301	118.79	69.668	27.513	113.94	59.384	110.8	199.39	22.707	126.52
461	2.305	285.13	1436.4	2.5545	277.19	1422.8	98.076	155.66	1364.1	-28.345	145.66	1353.6	104.09	112.25	1274.4	41.88	21.09	1077.4	52.427	250.82	1187.2	28.901	299.8	1080	25.227	69.671	1150.4	160.44	203.51	824.41	-136.98	193.31	1212	213.94	210.53	1069.6	291.19	205.92	945.38	327.36	284.3	840.12	325.17	318.82	749.39	283.16	287.78	739.65	347.6	345.47	697.2	334.15	156.08	1222.2	-150.6	152.27	1062.5	-227.75	115.45	945.66	-247.91	190.56	858.22	-268.99	204.86	748.62	-286.5	254.53	710.54	-279.96	177.26	640.13	235.68	178.28	474.48	182.63	200.64	284.85	99.005	164.98	118.69	73.779	179.67	201.12	86.638	221.78	500.12	-154.91	245.41	604.74	-150.02	196.26	581.81	-175.37	263.76	407.5	-127.43	161.3	252.92	-107.53	184.71	241.26	-51.277	175.25	38.809	-51.039	232.08	563.74	194.08	81.914	143.27	7.9486	175.25	556.23	212.69	171.17	663.19	-188.58	242.96	306.67	-62.079	150.4	200.31	140.61	8.2448	153.75	-16.16	140.21	54.305	-17.94	134.81	175.54	-43.284	88.328	63.663	-89.459	152.31	906.56	260.65	240.77	758.93	-235.95	45.09	143.98	-66.294	162.52	389.06	157.57	-22.03	850.69	100.28	-38.508	848.41	-3.3525	89.081	921.08	-179.29	242.81	829.61	185.74	217.18	29.571	30.617	276.17	31.69	59.562	52.815	34.64	69.309	118.87	69.735	27.52	114.07	59.422	110.79	199.36	22.708	126.51
462	2.31	290.41	1436.7	2.6216	282.51	1423.1	98.15	161.01	1364.2	-28.227	151.07	1353.7	104.21	117.72	1274.6	42.046	26.559	1077.6	52.864	256.25	1187.4	28.937	305.14	1080.2	24.66	75.196	1150.7	160.75	208.79	825.18	-136.88	198.82	1212.4	214.06	216.08	1070	291.41	212.11	945.71	327.55	291	840.81	325	325.88	750.34	282.79	295.03	740.33	347.24	352.97	698.29	333.68	161.28	1222.3	-150.44	156.6	1062.8	-227.78	119.56	946.04	-247.83	193.87	858.05	-269.33	207.13	748.37	-287.16	256.41	709.73	-280.77	181.66	639.99	235.66	181.1	474.38	182.58	201.71	284.59	99.035	165.27	118.57	73.771	180.41	200.95	86.637	228.95	501.1	-154.34	251.88	605.89	-149.82	202.81	582.54	-175.05	271.66	408.92	-126.57	172.92	251.92	-106.83	196.76	240.8	-50.638	193.88	39.006	-51.362	235.71	563.18	193.91	96.906	139.8	8.4372	178.86	556.15	212.65	177.11	663.73	-188.52	253.15	307.76	-61.353	151.06	200.3	140.59	22.741	147.85	-15.373	158.35	53.339	-18.144	148.75	173.69	-42.691	105.75	60.924	-89.371	158.48	906.74	260.96	243.2	758.19	-236.63	59.831	139.55	-65.714	164.13	389.02	157.59	-16.675	851.01	100.58	-33.212	848.83	-2.9883	93.109	921.58	-179.26	247.81	829.64	186.24	217.19	29.545	30.621	276.29	31.594	59.6	52.868	34.865	69.311	118.96	69.807	27.527	114.2	59.469	110.79	199.34	22.71	126.51
